<svg width="49" height="48" viewBox="0 0 49 48" fill="none" xmlns="http://www.w3.org/2000/svg">
<g clip-path="url(#clip0_15_93)">
<path d="M22.6647 28.6253C20.5068 28.6253 18.3494 27.8037 16.7067 26.161C13.4218 22.8761 13.4218 17.5304 16.7067 14.2456C19.9921 10.9607 25.3377 10.9602 28.6226 14.2456C31.908 17.5304 31.908 22.8761 28.6226 26.161C26.9799 27.8037 24.822 28.6253 22.6647 28.6253ZM22.6641 12.8253C20.774 12.8253 18.8834 13.5446 17.4443 14.9837C14.566 17.8619 14.566 22.5446 17.4443 25.4229C20.3225 28.3011 25.0058 28.3011 27.884 25.4229C30.7622 22.5446 30.7622 17.8619 27.884 14.9837C26.4449 13.5451 24.5548 12.8253 22.6641 12.8253Z" fill="#331B3B"/>
<path d="M39.782 34.5555L32.8443 27.6173C32.2106 26.9836 31.2491 26.8844 30.5032 27.3046L28.9722 25.7736C31.8932 22.4684 31.7826 17.4062 28.622 14.2461C25.3376 10.9607 19.9914 10.9612 16.706 14.2461C13.4212 17.5309 13.4212 22.8766 16.706 26.1615C18.3487 27.8036 20.5061 28.6258 22.664 28.6258C24.658 28.6258 26.6468 27.9148 28.2341 26.5122L29.7651 28.0432C29.3449 28.7891 29.4436 29.7501 30.0778 30.3843L37.016 37.322C37.384 37.6906 37.8752 37.8936 38.3988 37.8936C38.9223 37.8936 39.4135 37.6906 39.7815 37.322C40.15 36.9535 40.3531 36.4623 40.3531 35.9388C40.3531 35.4152 40.1505 34.9235 39.782 34.5555ZM17.4447 25.4234C14.5664 22.5451 14.5664 17.8624 17.4447 14.9842C18.8838 13.545 20.7739 12.8257 22.6645 12.8257C24.5552 12.8257 26.4453 13.545 27.8844 14.9842C30.7626 17.8624 30.7626 22.5451 27.8844 25.4234C25.0062 28.3016 20.3224 28.3011 17.4447 25.4234ZM39.0439 36.584C38.7015 36.9264 38.0971 36.9264 37.7541 36.584L30.8159 29.6457C30.4604 29.2897 30.4604 28.7114 30.8159 28.3554C30.9939 28.1779 31.2272 28.0886 31.461 28.0886C31.6944 28.0886 31.9282 28.1774 32.1057 28.3554L39.0434 35.2936C39.2146 35.4648 39.3091 35.694 39.3091 35.9383C39.3091 36.1825 39.2151 36.4122 39.0439 36.584Z" fill="#331B3B"/>
<path d="M17.202 23.2027C17.0438 23.2027 16.8877 23.1312 16.7854 22.996C16.6116 22.7663 16.6565 22.4385 16.8867 22.2647L24.4195 16.5635C24.5375 16.4748 24.6867 16.4393 24.8319 16.467C24.9764 16.4946 25.1033 16.5818 25.18 16.7076L27.5128 20.5311L28.2978 19.9674C28.5307 19.7983 28.8574 19.8526 29.0265 20.0869C29.1946 20.3213 29.1414 20.647 28.907 20.8156L27.6652 21.7077C27.5472 21.7923 27.3985 21.8251 27.2575 21.7954C27.115 21.7667 26.9908 21.6795 26.9156 21.5558L24.5902 17.7443L17.5173 23.0967C17.4223 23.1682 17.3116 23.2027 17.202 23.2027Z" fill="#331B3B"/>
<path d="M36.2138 29.2521C36.5024 29.2521 36.7357 29.0188 36.7357 28.7301V3.24621C36.7357 1.81075 35.5681 0.643066 34.1326 0.643066H11.9356C10.5002 0.643066 9.33302 1.81075 9.33302 3.24621V45.0192C9.33302 46.4542 10.5007 47.6218 11.9356 47.6218H34.1321C35.5675 47.6218 36.7352 46.4542 36.7352 45.0192V38.6776C36.7352 38.3889 36.5019 38.1556 36.2132 38.1556C35.9246 38.1556 35.6912 38.3889 35.6912 38.6776V40.0269H10.377V24.5443L11.7289 26.757C11.8057 26.8828 11.9325 26.97 12.0771 26.9976C12.1095 27.0039 12.1418 27.007 12.1742 27.007C12.2869 27.007 12.3976 26.9705 12.4895 26.9016L14.1442 25.6499C14.3738 25.4755 14.4193 25.1482 14.2454 24.9186C14.0711 24.6889 13.7438 24.6435 13.5141 24.8173L12.3193 25.7214L10.377 22.5425V6.63129H35.6918V14.6563L31.9309 17.3586C31.6965 17.5267 31.6427 17.853 31.8113 18.0873C31.9131 18.2293 32.0734 18.305 32.2357 18.305C32.3411 18.305 32.4476 18.2732 32.5395 18.2069L35.6918 15.942V28.7306C35.6918 29.0182 35.9251 29.2521 36.2138 29.2521ZM35.6918 41.0709V45.0187C35.6918 45.8779 34.9923 46.5774 34.1326 46.5774H11.9356C11.0765 46.5774 10.377 45.8779 10.377 45.0187V41.0709H35.6918ZM10.377 5.58732V3.24621C10.377 2.3865 11.0765 1.68704 11.9356 1.68704H34.1321C34.9918 1.68704 35.6912 2.3865 35.6912 3.24621V5.58732H10.377Z" fill="#331B3B"/>
<path d="M23.0342 45.7057C22.0122 45.7057 21.1807 44.8742 21.1807 43.8521C21.1807 42.8301 22.0122 41.998 23.0342 41.998C24.0563 41.998 24.8878 42.8301 24.8878 43.8521C24.8878 44.8742 24.0563 45.7057 23.0342 45.7057ZM23.0342 43.0425C22.5879 43.0425 22.2246 43.4058 22.2246 43.8527C22.2246 44.2995 22.5879 44.6623 23.0342 44.6623C23.4805 44.6623 23.8438 44.2995 23.8438 43.8527C23.8438 43.4058 23.4811 43.0425 23.0342 43.0425Z" fill="#331B3B"/>
<path d="M26.211 4.12356H19.8574C19.5693 4.12356 19.3354 3.88971 19.3354 3.60158C19.3354 3.31344 19.5693 3.07959 19.8574 3.07959H26.211C26.4997 3.07959 26.733 3.31344 26.733 3.60158C26.733 3.88971 26.4997 4.12356 26.211 4.12356Z" fill="#331B3B"/>
</g>
<defs>
<clipPath id="clip0_15_93">
<rect width="47.7108" height="47.7108" fill="white" transform="translate(0.987915 0.2771)"/>
</clipPath>
</defs>
</svg>
