<svg width="31" height="39" viewBox="0 0 31 39" fill="none" xmlns="http://www.w3.org/2000/svg">
<path d="M18.68 0.52002C18.4572 0.520062 18.2436 0.608583 18.0861 0.766113L0.446066 18.4061C0.288595 18.5636 0.200134 18.7773 0.200134 19C0.200134 19.2228 0.288595 19.4364 0.446066 19.5939L5.48607 24.6339C5.6436 24.7914 5.85723 24.8799 6.07997 24.8799C6.30272 24.8799 6.51634 24.7914 6.67388 24.6339L29.3539 1.95393C29.4713 1.83643 29.5512 1.68677 29.5836 1.52386C29.616 1.36095 29.5993 1.19209 29.5358 1.03863C29.4722 0.885177 29.3646 0.754005 29.2265 0.661696C29.0884 0.569387 28.9261 0.520085 28.76 0.52002H18.68ZM19.0278 2.20002H26.7322L6.07997 22.8522L2.22779 19L19.0278 2.20002ZM19.52 16.48C19.2972 16.4801 19.0836 16.5686 18.9261 16.7261L8.84607 26.8061C8.6886 26.9636 8.60013 27.1773 8.60013 27.4C8.60013 27.6228 8.6886 27.8364 8.84607 27.9939L13.8861 33.0339L18.9261 38.0739C19.0836 38.2314 19.2972 38.32 19.52 38.32H29.6C29.7661 38.3199 29.9284 38.2706 30.0665 38.1783C30.2046 38.086 30.3122 37.9549 30.3758 37.8014C30.4393 37.6479 30.456 37.4791 30.4236 37.3162C30.3912 37.1533 30.3113 37.0036 30.1939 36.8861L20.7078 27.4L30.1939 17.9139C30.3113 17.7964 30.3912 17.6468 30.4236 17.4839C30.456 17.3209 30.4393 17.1521 30.3758 16.9986C30.3122 16.8452 30.2046 16.714 30.0665 16.6217C29.9284 16.5294 29.7661 16.4801 29.6 16.48H19.52ZM19.8678 18.16H27.5722L14.48 31.2522L10.6278 27.4L19.8678 18.16ZM19.52 28.5878L27.5722 36.64H19.8678L15.6678 32.44L19.52 28.5878Z" fill="black"/>
</svg>
