<svg width="46" height="46" viewBox="0 0 46 46" fill="none" xmlns="http://www.w3.org/2000/svg">
<g clip-path="url(#clip0_15_82)">
<path d="M44.7989 28.9675H0.430069V5.83215C0.430069 4.35861 1.62852 3.16016 3.10206 3.16016H42.1269C43.6 3.16016 44.7989 4.35861 44.7989 5.83215V28.9675ZM1.41604 27.9816H43.8129V5.83215C43.8129 4.90237 43.0567 4.14613 42.1269 4.14613H3.10206C2.17229 4.14613 1.41604 4.90237 1.41604 5.83215V27.9816Z" fill="#331B3B"/>
<path d="M42.1269 35.0925H3.10207C1.62854 35.0925 0.430084 33.8936 0.430084 32.4205V27.9817H44.7989V32.4205C44.7989 33.8936 43.6 35.0925 42.1269 35.0925ZM1.41606 28.9677V32.4205C1.41606 33.3503 2.1723 34.1066 3.10207 34.1066H42.1269C43.0567 34.1066 43.813 33.3503 43.813 32.4205V28.9677H1.41606Z" fill="#331B3B"/>
<path d="M29.43 41.1872H15.7989C15.586 41.1872 15.3972 41.0506 15.3306 40.848C15.2641 40.6454 15.3355 40.4236 15.5071 40.2974C17.3795 38.9224 18.6292 36.8218 18.9358 34.5344C18.9684 34.2898 19.1774 34.1069 19.4244 34.1069H25.8036C26.0506 34.1069 26.2596 34.2893 26.2922 34.5344C26.5988 36.8223 27.849 38.9224 29.7214 40.2974C29.8934 40.4236 29.9644 40.6454 29.8979 40.848C29.8313 41.0506 29.6435 41.1872 29.43 41.1872ZM17.1359 40.2012H28.0936C26.692 38.8209 25.7351 37.0279 25.3831 35.0924H19.8459C19.4944 37.0279 18.5375 38.8209 17.1359 40.2012Z" fill="#331B3B"/>
<path d="M30.5289 43.7561H14.7001C13.72 43.7561 12.9229 42.9589 12.9229 41.9789C12.9229 40.9988 13.72 40.2017 14.7001 40.2017H30.5289C31.509 40.2017 32.3062 40.9988 32.3062 41.9789C32.3062 42.9589 31.509 43.7561 30.5289 43.7561ZM14.7001 41.1871C14.2638 41.1871 13.9089 41.5421 13.9089 41.9784C13.9089 42.4147 14.2638 42.7696 14.7001 42.7696H30.5289C30.9657 42.7696 31.3202 42.4147 31.3202 41.9784C31.3202 41.5421 30.9652 41.1871 30.5289 41.1871H14.7001Z" fill="#331B3B"/>
<path d="M23.4531 32.0299H21.7759C21.5038 32.0299 21.2829 31.8096 21.2829 31.5369C21.2829 31.2643 21.5038 31.0439 21.7759 31.0439H23.4531C23.7257 31.0439 23.9461 31.2643 23.9461 31.5369C23.9461 31.8096 23.7257 32.0299 23.4531 32.0299Z" fill="#331B3B"/>
<path d="M18.3181 20.8593C16.5966 20.8593 16.1007 19.3271 15.7019 18.0961C15.2937 16.8355 14.9979 16.063 14.0932 16.063C13.8211 16.063 13.6003 15.8421 13.6003 15.57C13.6003 15.2979 13.8211 15.077 14.0932 15.077C14.9979 15.077 15.2942 14.3045 15.7024 13.044C16.1012 11.8125 16.5971 10.2808 18.3186 10.2808C18.5908 10.2808 18.8116 10.5016 18.8116 10.7737C18.8116 11.0459 18.5908 11.2667 18.3186 11.2667C17.3627 11.2667 17.0581 12.0575 16.6405 13.3476C16.3886 14.1261 16.0967 15.0263 15.4771 15.57C16.0967 16.1138 16.3886 17.014 16.6405 17.7924C17.0581 19.0826 17.3627 19.8733 18.3186 19.8733C18.5908 19.8733 18.8116 20.0942 18.8116 20.3663C18.8116 20.6384 18.5903 20.8593 18.3181 20.8593Z" fill="#331B3B"/>
<path d="M26.9109 20.8593C26.6383 20.8593 26.4179 20.6384 26.4179 20.3663C26.4179 20.0942 26.6383 19.8733 26.9109 19.8733C27.8663 19.8733 28.1715 19.0826 28.589 17.7919C28.841 17.014 29.1328 16.1133 29.7525 15.57C29.1323 15.0263 28.8405 14.1261 28.589 13.3481C28.171 12.0575 27.8663 11.2667 26.9109 11.2667C26.6383 11.2667 26.4179 11.0459 26.4179 10.7737C26.4179 10.5016 26.6383 10.2808 26.9109 10.2808C28.6324 10.2808 29.1284 11.813 29.5272 13.044C29.9354 14.3045 30.2312 15.077 31.1358 15.077C31.4084 15.077 31.6288 15.2979 31.6288 15.57C31.6288 15.8421 31.4084 16.063 31.1358 16.063C30.2312 16.063 29.9349 16.8355 29.5267 18.0961C29.1284 19.3271 28.6324 20.8593 26.9109 20.8593Z" fill="#331B3B"/>
<path d="M20.6765 22.0046C20.6248 22.0046 20.572 21.9962 20.5198 21.979C20.2619 21.8922 20.1224 21.6127 20.2092 21.3549L24.1925 9.47239C24.2793 9.21456 24.5588 9.07554 24.8166 9.16181C25.075 9.24858 25.2145 9.5281 25.1277 9.78593L21.1444 21.6684C21.0749 21.874 20.8826 22.0046 20.6765 22.0046Z" fill="#331B3B"/>
</g>
<defs>
<clipPath id="clip0_15_82">
<rect width="45.0602" height="45.0602" fill="white" transform="translate(0.0843506 0.927734)"/>
</clipPath>
</defs>
</svg>
