<svg width="46" height="46" viewBox="0 0 46 46" fill="none" xmlns="http://www.w3.org/2000/svg">
<rect width="46" height="46" rx="13" fill="#054285" fill-opacity="0.7"/>
<path d="M35 13H11C10.7348 13 10.4804 13.1054 10.2929 13.2929C10.1054 13.4804 10 13.7348 10 14V31C10 31.5304 10.2107 32.0391 10.5858 32.4142C10.9609 32.7893 11.4696 33 12 33H34C34.5304 33 35.0391 32.7893 35.4142 32.4142C35.7893 32.0391 36 31.5304 36 31V14C36 13.7348 35.8946 13.4804 35.7071 13.2929C35.5196 13.1054 35.2652 13 35 13ZM34 31H12V16.2738L22.3237 25.7375C22.5082 25.9069 22.7496 26.0008 23 26.0008C23.2504 26.0008 23.4918 25.9069 23.6763 25.7375L34 16.2738V31Z" fill="white"/>
</svg>
