<svg width="19" height="19" viewBox="0 0 19 19" fill="none" xmlns="http://www.w3.org/2000/svg">
<path fill-rule="evenodd" clip-rule="evenodd" d="M18.2566 18.8071H14.5582V12.5079C14.5582 10.7808 13.9019 9.81562 12.5349 9.81562C11.0478 9.81562 10.2709 10.82 10.2709 12.5079V18.8071H6.70659V6.80713H10.2709V8.42353C10.2709 8.42353 11.3425 6.44051 13.889 6.44051C16.4343 6.44051 18.2566 7.99483 18.2566 11.2095V18.8071ZM2.45444 5.23582C1.24038 5.23582 0.256592 4.24432 0.256592 3.02148C0.256592 1.79864 1.24038 0.807129 2.45444 0.807129C3.6685 0.807129 4.6517 1.79864 4.6517 3.02148C4.6517 4.24432 3.6685 5.23582 2.45444 5.23582ZM0.614017 18.8071H4.33062V6.80713H0.614017V18.8071Z" fill="white"/>
</svg>
