<svg width="45" height="45" viewBox="0 0 45 45" fill="none" xmlns="http://www.w3.org/2000/svg">
<path fill-rule="evenodd" clip-rule="evenodd" d="M8.14961 0.397282C4.77744 1.48084 2.40059 3.53161 0.925866 6.62986L0 8.57489V22.5437V36.5126L0.925866 38.4576C2.10331 40.9317 4.07622 42.9008 6.55512 44.0759L8.50394 45H22.5H36.4961L38.4449 44.0759C40.9238 42.9008 42.8967 40.9317 44.0741 38.4576L45 36.5126V22.5437V8.57489L44.0741 6.62986C42.8967 4.15579 40.9238 2.18671 38.4449 1.01156L36.4961 0.0874914L23.0315 0.0146411C12.8509 -0.0401733 9.2211 0.0528345 8.14961 0.397282ZM25.5224 8.94622C29.2805 9.92298 32.3787 12.4515 34.1465 15.984C35.1337 17.957 35.7513 21.7714 35.1921 22.4437C34.6365 23.1117 33.8386 22.3492 33.8386 21.15C33.8386 19.7312 32.8284 16.6012 31.893 15.1222C30.2251 12.4851 27.6318 10.9206 23.6516 10.1497C22.4001 9.90706 21.437 9.53539 21.437 9.29526C21.437 8.23257 22.4461 8.14628 25.5224 8.94622ZM14.2235 9.90105C15.8396 11.3131 18.248 14.9553 18.248 15.9869C18.248 16.4049 17.69 17.2865 17.0079 17.9464C15.4534 19.4501 15.3911 20.7543 16.7712 22.9165C18.4691 25.5766 22.3544 28.5557 24.126 28.5557C24.4513 28.5557 25.335 27.9987 26.0901 27.3179C26.9706 26.524 27.8185 26.0802 28.4552 26.0802C29.5809 26.0802 32.0177 27.5205 34.1607 29.4525C36.1045 31.2055 36.102 32.2827 34.1497 34.3968C32.5201 36.1611 30.7137 36.8613 29.0324 36.38C25.4218 35.3466 19.1884 31.2027 15.575 27.4339C12.3669 24.0877 10.6019 21.5705 8.86606 17.8658C7.17094 14.2484 7.10256 12.6004 8.5748 10.8538C9.53965 9.70973 11.1784 8.79097 12.3006 8.76551C12.6351 8.75808 13.5004 9.26874 14.2235 9.90105ZM26.3013 12.4759C29.5136 13.8155 31.6375 16.5488 31.7973 19.5491C31.8703 20.9152 31.7675 21.3049 31.3094 21.3994C30.8689 21.4906 30.6227 21.0673 30.2875 19.6446C29.4243 15.9802 28.5456 15.0045 25.0572 13.835C22.3186 12.9173 21.6301 11.9345 23.7256 11.9345C24.4283 11.9345 25.5873 12.1782 26.3013 12.4759ZM26.0295 15.6407C27.5226 16.4112 28.5236 17.8629 28.5236 19.2577C28.5236 20.8816 27.5287 20.7207 26.9748 19.0073C26.6166 17.899 25.5065 17.0054 23.765 16.4229C23.2398 16.2472 23.8372 15.1173 24.4552 15.1173C24.7635 15.1173 25.4718 15.3528 26.0295 15.6407Z" fill="#054285" fill-opacity="0.7"/>
</svg>
